<!DOCTYPE svg PUBLIC "-//W3C//DTD SVG 1.1//EN" "http://www.w3.org/Graphics/SVG/1.1/DTD/svg11.dtd">
<!-- Uploaded to: SVG Repo, www.svgrepo.com, Transformed by: SVG Repo Mixer Tools -->
<svg width="800px" height="800px" viewBox="0 0 24 24" fill="none" xmlns="http://www.w3.org/2000/svg">
<g id="SVGRepo_bgCarrier" stroke-width="0"/>
<g id="SVGRepo_tracerCarrier" stroke-linecap="round" stroke-linejoin="round"/>
<g id="SVGRepo_iconCarrier">
<path d="M7.3 21C7.3 21.3866 7.6134 21.7 8 21.7C8.3866 21.7 8.7 21.3866 8.7 21H7.3ZM8.7 18C8.7 17.6134 8.3866 17.3 8 17.3C7.6134 17.3 7.3 17.6134 7.3 18H8.7ZM3.3 21C3.3 21.3866 3.6134 21.7 4 21.7C4.3866 21.7 4.7 21.3866 4.7 21H3.3ZM13.5 13.7C13.8866 13.7 14.2 13.3866 14.2 13C14.2 12.6134 13.8866 12.3 13.5 12.3V13.7ZM20.7321 8L21.4082 7.81883C21.3601 7.6395 21.2428 7.48661 21.0821 7.39378C20.9213 7.30096 20.7302 7.2758 20.5509 7.32385L20.7321 8ZM17.8188 8.0559C17.4454 8.15596 17.2238 8.5398 17.3239 8.91322C17.4239 9.28665 17.8077 9.50826 18.1812 9.4082L17.8188 8.0559ZM20.788 10.9132C20.888 11.2867 21.2718 11.5083 21.6453 11.4082C22.0187 11.3081 22.2403 10.9243 22.1402 10.5509L20.788 10.9132ZM21.1078 8.8473C21.2996 8.51164 21.183 8.08404 20.8473 7.89223C20.5117 7.70042 20.0841 7.81704 19.8923 8.1527L21.1078 8.8473ZM17.8923 11.6527C17.7004 11.9884 17.8171 12.416 18.1527 12.6078C18.4884 12.7996 18.916 12.683 19.1078 12.3473L17.8923 11.6527ZM8.7 21V18H7.3V21H8.7ZM15.3 6.5C15.3 8.32254 13.8225 9.8 12 9.8V11.2C14.5957 11.2 16.7 9.09574 16.7 6.5H15.3ZM12 9.8C10.1775 9.8 8.7 8.32254 8.7 6.5H7.3C7.3 9.09574 9.40426 11.2 12 11.2V9.8ZM8.7 6.5C8.7 4.67746 10.1775 3.2 12 3.2V1.8C9.40426 1.8 7.3 3.90426 7.3 6.5H8.7ZM12 3.2C13.8225 3.2 15.3 4.67746 15.3 6.5H16.7C16.7 3.90426 14.5957 1.8 12 1.8V3.2ZM4.7 21V18.5H3.3V21H4.7ZM9.5 13.7H13.5V12.3H9.5V13.7ZM4.7 18.5C4.7 15.849 6.84903 13.7 9.5 13.7V12.3C6.07583 12.3 3.3 15.0758 3.3 18.5H4.7ZM20.3 16.5C20.3 18.5987 18.5987 20.3 16.5 20.3V21.7C19.3719 21.7 21.7 19.3719 21.7 16.5H20.3ZM16.5 20.3C14.4013 20.3 12.7 18.5987 12.7 16.5H11.3C11.3 19.3719 13.6281 21.7 16.5 21.7V20.3ZM12.7 16.5C12.7 14.4013 14.4013 12.7 16.5 12.7V11.3C13.6281 11.3 11.3 13.6281 11.3 16.5H12.7ZM16.5 12.7C18.5987 12.7 20.3 14.4013 20.3 16.5H21.7C21.7 13.6281 19.3719 11.3 16.5 11.3V12.7ZM20.5509 7.32385L17.8188 8.0559L18.1812 9.4082L20.9132 8.67615L20.5509 7.32385ZM20.0559 8.18117L20.788 10.9132L22.1402 10.5509L21.4082 7.81883L20.0559 8.18117ZM19.8923 8.1527L17.8923 11.6527L19.1078 12.3473L21.1078 8.8473L19.8923 8.1527Z" fill="#003D5B"/>
</g>
</svg>