<?xml version="1.0" encoding="utf-8"?>
<!-- Uploaded to: SVG Repo, www.svgrepo.com, Generator: SVG Repo Mixer Tools -->
<svg width="800px" height="800px" viewBox="0 0 1024 1024" class="icon"  version="1.1" xmlns="http://www.w3.org/2000/svg"><path d="M89.632873 452.465352H934.367849c28.495741 0 51.596647 23.100906 51.596647 51.596647v468.340631c0 28.495741-23.100906 51.59737-51.596647 51.59737H89.632873c-28.495741 0-51.596647-23.101628-51.596647-51.59737V504.061999c0-28.496464 23.100906-51.596647 51.596647-51.596647z" fill="#656D78" /><path d="M671.090204 156.113544C671.090204 69.894437 601.196489 0 514.977383 0 428.757554 0 358.863116 69.894437 358.863116 156.113544c0 68.875004 44.604386 127.327361 106.501578 148.059944v287.867604H567.235109V303.253758c60.516513-21.494087 103.855096-79.25141 103.855095-147.140214z" fill="#ED5564" /><path d="M761.716502 788.506443m-123.038659 0a123.038659 123.038659 0 1 0 246.077317 0 123.038659 123.038659 0 1 0-246.077317 0Z" fill="#E6E7EB" /><path d="M406.491124 727.648915H338.356673V654.884023c0-19.728321-15.993046-35.720645-35.720644-35.720644a35.954009 35.954009 0 0 0-2.087275-0.094646c-19.726154-0.310671-35.968459 15.428059-36.279852 35.153489v73.426693h71.442012v66.14977h-71.442012v-66.14977h-70.780933c-18.739232-0.051297-34.332741 14.38695-35.720645 33.074885 0 19.728321 15.993046 35.719922 35.720645 35.719922h70.780933v68.135173c-1.51145 19.670522 13.209291 36.840505 32.879812 38.351955l0.195795 0.015172h5.29152c19.728321 0 35.720645-15.993046 35.720644-35.720645v-70.780933h67.473372c19.728321 0 35.720645-15.992324 35.720645-35.719922-1.366952-18.437231-16.574651-32.784444-35.059566-33.075607z" fill="#E6E7EB" /></svg>